# xmcd CD database file
#
# Track frame offsets:
#	150
#	14183
#	27206
#	39471
#	54221
#	67419
#	79436
#	90905
#	102699
#	116006
#	128957
#	142493
#	157345
#	171122
#	184591
#	197463
#	210920
#	223546
#	238401
#	253000
#	265946
#	279076
#	291864
#	305552
#	320529
#
# Disc length: 4472 seconds
#
# Revision: 0
# Processed by: cddbd v1.5.2PL0 Copyright (c) Steve Scherf et al.
# Submitted via: CDex 1.51
#
DISCID=84117619
DTITLE=Big Bill Broonzy - Key To The Blues 1
DYEAR=2009
DGENRE=Blues
TTITLE0=Big Broonzy Bill - Worrying You Off My Mind-Part 1
TTITLE1=Big Broonzy Bill - Bull Cow Blues
TTITLE2=Big Bill Broonzy - Mississippi River Blues
TTITLE3=Big Bill Broonzy - Southern Flood Blues
TTITLE4=Big Bill Broonzy - I Want My Hands On It, Take 2
TTITLE5=Big Bill Broonzy - Unemployment Stomp
TTITLE6=Big Bill Broonzy - Good Time Tonight
TTITLE7=Big Bill Broonzy - Fightin' Little Rooster
TTITLE8=Big Bill Broonzy - That's All Right, Baby
TTITLE9=Big Bill Broonzy - You Got To Hit The Right Lick
TTITLE10=Big Bill Broonzy - Medicine Man Blues
TTITLE11=Big Bill Broonzy - Getting Older Every Day: Take 2
TTITLE12=Big Bill Broonzy - Key To The Highway
TTITLE13=Big Bill Broonzy - Wee Wee Hours
TTITLE14=Big Bill Broonzy - Night Watchman Blues
TTITLE15=Big Bill Broonzy - Tell Me Baby
TTITLE16=Big Bill Broonzy - You Got The Best Go
TTITLE17=Big Bill Broonzy - Old Man Blues
TTITLE18=Big Bill Broonzy - Martha Blues
TTITLE19=Big Bill Broonzy - Rambling Bill
TTITLE20=Big Bill Broonzy - You've Been Mistreating Me
TTITLE21=Big Bill Broonzy - Willie Mae Blues
TTITLE22=Big Bill Broonzy - Leavin' Day
TTITLE23=Big Bill Broonzy - Make My Get Away
TTITLE24=Big Bill Broonzy - John Henry
EXTD=YEAR: 2009
EXTT0=
EXTT1=
EXTT2=
EXTT3=
EXTT4=
EXTT5=
EXTT6=
EXTT7=
EXTT8=
EXTT9=
EXTT10=
EXTT11=
EXTT12=
EXTT13=
EXTT14=
EXTT15=
EXTT16=
EXTT17=
EXTT18=
EXTT19=
EXTT20=
EXTT21=
EXTT22=
EXTT23=
EXTT24=
PLAYORDER=
